<?xml version="1.0" encoding="UTF-8"?>
<svg width="37px" height="37px" viewBox="0 0 37 37" version="1.1" xmlns="http://www.w3.org/2000/svg" xmlns:xlink="http://www.w3.org/1999/xlink">
    <!-- Generator: Sketch 60.1 (88133) - https://sketch.com -->
    <title>Logo_WBG</title>
    <desc>Created with Sketch.</desc>
    <defs>
        <path d="M22.676,30.267 C25.033,30.238 27.27,29.893 29.25,29.228 C29.748,29.06 30.224,28.874 30.674,28.673 C30.123,30.018 29.314,31.14 28.259,31.974 C26.178,33.506 23.723,34.557 21.058,34.958 C21.724,33.806 22.262,32.178 22.676,30.267 M11.583,33.535 C11.534,33.494 11.481,33.456 11.421,33.428 C10.494,32.976 10.119,30.909 10.602,27.748 C12.384,28.549 14.324,29.184 16.363,29.619 C17.908,29.949 19.448,30.153 20.953,30.232 C20.215,33.44 19.269,35.125 18.642,35.125 C18.602,35.125 18.563,35.132 18.525,35.138 C16.041,35.121 13.687,34.55 11.583,33.535 M2.976,23.316 C2.833,22.774 2.744,22.221 2.707,21.659 C3.265,22.453 3.944,23.227 4.753,23.975 C5.975,25.103 7.425,26.113 9.041,26.979 C8.711,28.825 8.618,30.498 8.826,31.846 C6.041,29.74 3.957,26.759 2.976,23.316 M23.727,18.833 C23.727,18.181 23.717,17.526 23.698,16.874 C25.775,16.736 27.698,16.196 29.272,15.291 C30.73,18.175 31.512,21.218 31.5060343,24.09 C31.505,24.922 31.433,25.713 31.301,26.46 C30.551,26.919 29.688,27.317 28.717,27.645 C26.993,28.225 25.051,28.541 22.992,28.594 C23.488,25.627 23.727,22.182 23.727,18.833 M16.713,27.988 C14.645,27.545 12.691,26.888 10.922,26.057 C11.503,23.443 12.585,20.276 14.299,16.76 C14.548,16.251 14.802,15.75 15.061,15.26 C16.26,15.798 17.565,16.225 18.933,16.517 C19.972,16.74 21.012,16.861 22.029,16.896 C22.048,17.522 22.056,18.167 22.056,18.833 C22.056,22.764 21.742,26.027 21.288,28.577 C19.796,28.512 18.259,28.317 16.713,27.988 M5.887,22.75 C4.469,21.44 3.494,20.052 2.997,18.674 C3.391,17.13 4.153,15.58 5.274,14.095 C6.337,12.687 7.66,11.419 9.177,10.329 C9.615,11.12 10.228,11.892 11.009,12.624 C11.751,13.319 12.616,13.949 13.575,14.5 C13.311,15.001 13.053,15.51 12.801,16.028 C11.32,19.063 10.111,22.32 9.401,25.274 C8.082,24.531 6.897,23.685 5.887,22.75 M22.593,7.237 C24.491,8.65 26.231,10.473 27.686,12.605 C27.962,13.009 28.222,13.42 28.469,13.835 C27.136,14.606 25.448,15.067 23.629,15.196 C23.475,12.315 23.134,9.543 22.593,7.237 M19.283,14.885 C18.075,14.628 16.927,14.257 15.869,13.792 C17.427,11.067 19.13,8.698 20.811,6.937 C21.336,9.003 21.776,11.781 21.962,15.225 C21.077,15.188 20.177,15.077 19.283,14.885 M12.15,11.406 C11.459,10.76 10.935,10.086 10.582,9.409 C12.146,8.468 13.877,7.701 15.721,7.146 C16.818,6.816 17.928,6.572 19.035,6.403 C17.437,8.194 15.841,10.469 14.378,13.039 C13.542,12.556 12.793,12.009 12.15,11.406 M8.56,6.087 C8.537,6.171 8.513,6.257 8.494,6.345 C8.325,7.132 8.345,7.939 8.543,8.739 C6.747,9.978 5.185,11.443 3.941,13.089 C3.562,13.59 3.223,14.102 2.916,14.617 C3.841,11.199 5.853,8.225 8.56,6.087 M10.126,6.693 C10.311,5.827 10.832,5.053 11.637,4.413 C13.586,3.831 15.853,3.971 18.236,4.843 C17.233,5.017 16.23,5.249 15.241,5.548 C13.4,6.1 11.662,6.856 10.07,7.774 C10.034,7.409 10.051,7.047 10.126,6.693 M23.669,4.494 C24.242,4.123 24.77,3.869 25.211,3.764 C26.048,4.099 26.878,4.528 27.665,5.07 C26.402,4.754 25.059,4.562 23.669,4.494 M20.857,2.707 C21.534,2.783 22.257,2.899 23,3.072 C22.535,3.322 22.053,3.634 21.562,4.009 C21.344,3.516 21.109,3.082 20.857,2.707 M19.048,3.362 C18.293,3.073 17.547,2.849 16.811,2.689 C17.401,2.623 17.998,2.585 18.606,2.585 C18.89,2.588 19.239,2.93 19.604,3.591 C19.419,3.512 19.234,3.434 19.048,3.362 M0.681,18.862 C0.681,20.568 0.926,22.217 1.373,23.782 C1.4,23.887 1.426,23.992 1.457,24.097 C1.463,24.116 1.472,24.134 1.479,24.155 C3.743,31.476 10.575,36.809 18.629,36.809 C22.355,36.809 25.818,35.667 28.69,33.717 C28.719,33.7 28.748,33.686 28.774,33.668 C28.944,33.552 29.109,33.43 29.269,33.302 C32.572,30.863 35.01,27.32 36.038,23.221 C36.096,23.033 36.146,22.841 36.188,22.647 C36.198,22.6 36.201,22.556 36.203,22.51 C36.448,21.331 36.576,20.111 36.576,18.863 C36.576,16.441 36.102,14.09 35.165,11.878 C34.985,11.453 34.496,11.254 34.071,11.435 C33.646,11.613 33.448,12.104 33.627,12.528 C34.476,14.533 34.906,16.665 34.906,18.863 C34.906,20.21 34.739,21.518 34.428,22.771 C34.181,23.561 33.748,24.292 33.149,24.956 C33.164,24.673 33.173,24.387 33.174,24.094 C33.181,20.892 32.295,17.51 30.653,14.331 C31.857,13.297 32.626,12.019 32.889,10.59 C32.973,10.137 32.673,9.702 32.22,9.618 C31.766,9.533 31.331,9.833 31.247,10.287 C31.073,11.232 30.582,12.099 29.814,12.835 C29.575,12.44 29.327,12.049 29.064,11.664 C27.599,9.516 25.858,7.658 23.953,6.175 C26.468,6.341 28.792,6.95 30.664,7.996 C30.957,8.163 31.347,8.158 31.622,7.929 C31.976,7.634 32.024,7.106 31.727,6.752 C29.038,2.991 24.387,0.916 18.627,0.916 C8.733,0.915 0.681,8.966 0.681,18.862" id="path-1"></path>
        <radialGradient cx="95.5682881%" cy="18.6282091%" fx="95.5682881%" fy="18.6282091%" r="82.8199128%" gradientTransform="translate(0.955683,0.186282),scale(0.999972,1.000000),translate(-0.955683,-0.186282)" id="radialGradient-3">
            <stop stop-color="#FFFFFF" offset="0%"></stop>
            <stop stop-color="#E7F6FD" offset="5.98%"></stop>
            <stop stop-color="#AFE2FA" offset="18.29%"></stop>
            <stop stop-color="#37C6F4" offset="35.89%"></stop>
            <stop stop-color="#00AEEF" offset="54.4%"></stop>
            <stop stop-color="#002F54" offset="100%"></stop>
        </radialGradient>
    </defs>
    <g id="Page-1" stroke="none" stroke-width="1" fill="none" fill-rule="evenodd">
        <g id="Logo_WBG">
            <mask id="mask-2" fill="white">
                <use xlink:href="#path-1"></use>
            </mask>
            <g id="SVGID_1_"></g>
            <rect id="Rectangle" fill="url(#radialGradient-3)" fill-rule="nonzero" mask="url(#mask-2)" x="0.681" y="0.915" width="35.895" height="35.894"></rect>
        </g>
    </g>
</svg>