<svg xmlns="http://www.w3.org/2000/svg" height="181" width="181" viewBox="0 0 183 183">
 <path d="m1.0018 0.99815v90.5 90.5h90.5 90.5v-90.5-90.5h-90.5-90.5zm92.183 12.682c6.0032 0.05697 11.8 0.59587 16.057 1.6367 40.719 9.9577 67.04 49.8 59.352 89.844-5.8326 30.376-28.026 54.404-57.121 61.846-9.1472 2.3395-22.87 3.2001-30.932 1.9414-31.382-4.8997-56.023-26.849-64.721-57.65-3.0044-10.64-3.017-28.413-0.02734-39.441 7.4006-27.301 28.872-48.762 56.066-56.039 5.5515-1.4856 13.608-2.21 21.326-2.1367zm-1.6836 5.9785c-33.372 0.06196-60.677 20.806-69.609 52.885-2.9845 10.718-2.9967 26.64-0.0293 37.756 7.607 28.496 31.607 49.176 61.139 52.684 21.589 2.5642 43.94-4.9916 59.094-19.977 12.409-12.271 18.981-25.66 21.195-43.182 3.73-29.5-12.11-59.29-38.38-72.197-12.78-6.274-19.96-7.986-33.408-7.961zm-3.7949 8.3398-0.10156 14.25-0.10352 14.25-2.5 0.1875c-3.1046 0.23331-14.12-2.409-15.406-3.6953-1.051-1.051 3.1402-9.8036 9.2109-19.234 2.9369-4.5624 4.2303-5.7431 6.2988-5.75l2.6016-0.0078zm8.2949 0h2.4102c2.6107 0 7.2789 6.4994 13.451 18.727l3.1289 6.1992-4.9453 1.4688c-2.7199 0.80774-6.9915 1.7751-9.4941 2.1504l-4.5508 0.68164v-14.613-14.613zm-24.875 2.9805-2.6406 4.2598c-1.4521 2.3431-3.7234 6.6223-5.0488 9.5098s-2.5294 5.2424-2.6738 5.2324c-0.37469-0.02585-11.043-5.9296-11.449-6.3359-0.73506-0.73506 11.675-8.6703 16.59-10.607l5.2227-2.0586zm41.623 0.01953c1.5642 0 15.131 7.3693 18.104 9.834l3.3516 2.7793-5.959 3.1758-5.957 3.1758-1.8926-4.2051c-1.0416-2.3119-3.3249-6.5773-5.0723-9.4805s-2.9056-5.2793-2.5742-5.2793zm27.178 17.916 3.1309 4.293c1.7213 2.3606 4.2417 6.4715 5.6016 9.1367 2.5838 5.0639 6.3418 18.287 6.3418 22.314 0 2.3172-0.11222 2.3398-11.455 2.3398h-11.455l-0.61328-3.75c-1.2065-7.3752-3.4142-16.824-4.9434-21.156-0.85528-2.4233-1.4363-4.5054-1.293-4.627 0.14338-0.1216 2.2848-1.2352 4.7598-2.4746s5.7206-3.1128 7.2129-4.1641l2.7129-1.9121zm-96.883 0.16211 5.2207 3.0781c2.8713 1.693 6.2367 3.4634 7.4785 3.9355 2.6814 1.0194 2.7169 1.3685 0.70312 7.0332-1.9949 5.6119-4.4453 17.152-4.4453 20.939v2.9355h-12.088-12.088l0.65625-4.25c1.6428-10.651 5.5639-20.545 11.676-29.461l2.8867-4.2109zm22.863 11.041 5.543 1.9473c3.0495 1.0718 7.9099 2.2895 10.799 2.7051l5.252 0.75586 0.13477 10.736 0.13672 10.736h-14.023-14.023l0.62109-5.25c0.64742-5.4643 2.7641-14.306 4.5332-18.941l1.0273-2.6895zm50.643 0.35742c1.0215-0.0409 1.7696 1.5888 3.2891 6.7285 1.1863 4.0127 2.4481 10.107 2.8027 13.545l0.64454 6.25h-13.643-13.643v-11-11h2.7715c2.552 0 13.589-2.8108 17.318-4.4102 0.16009-0.06865 0.31306-0.10744 0.45899-0.11328zm31.289 35.52c8.7202 0.03959 8.0046 0.80421 5.7148 10.512-1.8385 7.7943-4.677 14.335-9.1465 21.068-1.9801 2.9831-4.1199 5.3952-4.7539 5.3594-0.63402-0.0358-3.8523-1.606-7.1523-3.4883-3.3-1.8822-6.3509-3.5436-6.7793-3.6934-0.42837-0.14973 0.1498-2.969 1.2852-6.2637 1.571-4.559 4.9941-20.406 4.9941-23.121 0-0.20296 5.175-0.36914 11.5-0.36914 1.6538 0 3.0921-0.0096 4.3379-0.0039zm-120.01 0.0039h12.088 12.088v3.8906c0 3.2367 3.464 18.69 5.4043 24.109 0.38059 1.063-1.6194 2.6962-6.8672 5.6055l-7.4062 4.1055-2.9336-4.1055c-5.986-8.37-10.057-18.57-11.721-29.35l-0.65625-4.25zm32.176 0h13.861 13.863v9.9922c0 6.1373-0.43022 10.331-1.1133 10.873-0.61164 0.48501-3.3601 1.2088-6.1094 1.6074-2.7493 0.39859-7.162 1.5466-9.8047 2.5508l-4.8047 1.8242-1.0195-2.6738c-1.655-4.343-4.8576-18.448-4.8652-21.424l-0.0078-2.75zm35.932 0h13.535 13.533v3.3711c0 1.8545-1.1148 7.7706-2.4785 13.146-1.3637 5.3759-2.6012 9.8764-2.75 10-0.14879 0.12364-2.7465-0.63361-5.7715-1.6816s-7.75-2.2328-10.5-2.6328l-5-0.72656-0.2832-10.738-0.28516-10.738zm-10.658 30h2.377l0.03125 14.5 0.03125 14.5-2.6055-0.008c-2.0784-0.007-3.3468-1.1725-6.2578-5.75-4.0228-6.3256-9.8496-17.644-9.8496-19.133 0-1.0089 12.278-4.1094 16.273-4.1094zm13.91 0.002c1.6449 0.0365 4.1275 0.72711 7.8691 1.5781 3.8211 0.86909 6.9425 2.1066 6.9375 2.75-0.0172 2.0563-4.8362 11.623-9.1934 18.25-3.1514 4.7932-4.8018 6.4199-6.5098 6.4199-2.2787 0-2.2871-0.0584-2.2871-14.5 0-11.495-0.43516-14.578 3.1836-14.498zm23.408 6.998c0.36509 0 3.1542 1.4249 6.1973 3.166l5.5332 3.166-2.9102 2.3242c-1.6012 1.2789-5.3989 3.6531-8.4394 5.2754s-6.731 3.4066-8.1992 3.9648l-2.668 1.0137 3.0801-5.2051c1.6943-2.863 3.9047-7.1176 4.9121-9.4551s2.129-4.25 2.4941-4.25zm-61.432 0.15039c0.09361-0.0212 0.14781-0.0199 0.16016 0.004 0.09874 0.19041 2.2806 4.5082 4.8477 9.5957s4.5311 9.25 4.3652 9.25c-1.1551 0-16.579-8.4626-18.838-10.336l-2.8047-2.3262 6.125-3.2656c2.9479-1.5712 5.4893-2.7735 6.1445-2.9219z"/>
</svg>
