<?xml version="1.0" encoding="UTF-8" standalone="no"?>
<svg
   height="181"
   width="181"
   viewBox="0 0 183 183"
   version="1.1"
   id="svg1"
   sodipodi:docname="geest-debug.svg"
   inkscape:version="1.4 (e7c3feb100, 2024-10-09)"
   xml:space="preserve"
   xmlns:inkscape="http://www.inkscape.org/namespaces/inkscape"
   xmlns:sodipodi="http://sodipodi.sourceforge.net/DTD/sodipodi-0.dtd"
   xmlns="http://www.w3.org/2000/svg"
   xmlns:svg="http://www.w3.org/2000/svg"><defs
     id="defs1" /><sodipodi:namedview
     id="namedview1"
     pagecolor="#ffffff"
     bordercolor="#000000"
     borderopacity="0.25"
     inkscape:showpageshadow="2"
     inkscape:pageopacity="0.0"
     inkscape:pagecheckerboard="0"
     inkscape:deskcolor="#d1d1d1"
     showguides="true"
     inkscape:zoom="0.7774268"
     inkscape:cx="-194.87365"
     inkscape:cy="193.58736"
     inkscape:window-width="1920"
     inkscape:window-height="1002"
     inkscape:window-x="1920"
     inkscape:window-y="16"
     inkscape:window-maximized="1"
     inkscape:current-layer="svg1"><sodipodi:guide
       position="14.713568,137.7098"
       orientation="1,0"
       id="guide1"
       inkscape:locked="false" /></sodipodi:namedview><text
     xml:space="preserve"
     style="font-size:12.1326px;fill:none;stroke:#ffffff;stroke-width:60.663;stroke-opacity:1"
     x="82.544083"
     y="23.518099"
     id="text1"><tspan
       sodipodi:role="line"
       id="tspan1"
       style="stroke-width:60.663" /></text><g
     id="g1"
     transform="matrix(0.20933662,0,0,0.24770019,-12.829945,-35.394627)"
     style="stroke:none;stroke-width:14.19036322;stroke-dasharray:none;stroke-opacity:1"><polygon
       fill="#000000"
       points="255,354 254,355 254,356 253,357 253,374 254,375 254,383 255,384 255,389 256,390 256,395 257,396 257,400 258,401 258,404 259,405 259,408 260,409 260,411 261,412 261,414 262,415 262,417 263,418 263,420 264,421 264,422 265,423 265,424 266,425 266,427 267,428 267,429 268,430 268,431 270,433 270,434 271,435 271,436 272,437 272,438 274,440 274,441 277,444 277,445 292,460 293,460 296,463 297,463 299,465 300,465 302,467 303,467 304,468 305,468 306,469 307,469 309,471 310,471 311,472 312,472 313,473 315,473 316,474 317,474 318,475 319,475 320,476 322,476 323,477 324,477 325,478 327,478 328,479 330,479 331,480 334,480 335,481 338,481 339,482 339,483 338,484 338,485 337,486 337,487 336,488 336,489 335,490 335,491 334,492 334,494 333,495 333,497 332,498 332,500 331,501 331,503 330,504 330,507 329,508 329,511 328,512 328,517 327,518 327,521 326,522 285,522 284,523 275,523 274,524 271,524 270,525 268,525 267,526 265,526 264,527 262,527 261,528 260,528 259,529 258,529 257,530 256,530 255,531 254,531 252,533 251,533 248,536 247,536 235,548 235,549 230,554 230,555 228,557 228,558 225,561 225,562 223,564 223,565 221,567 221,568 219,570 219,571 217,573 217,574 215,576 215,577 213,579 213,580 212,581 212,582 210,584 210,585 209,586 209,587 208,588 208,596 209,597 209,598 210,599 210,600 214,604 215,604 216,605 218,605 219,606 224,606 225,605 227,605 228,604 229,604 234,599 234,598 236,596 236,595 238,593 238,592 240,590 240,589 242,587 242,586 244,584 244,583 246,581 246,580 249,577 249,576 251,574 251,573 254,570 254,569 258,565 258,564 264,558 265,558 267,556 268,556 269,555 270,555 271,554 272,554 273,553 274,553 275,552 277,552 278,551 282,551 283,550 323,550 324,551 324,587 325,588 325,605 326,606 326,616 327,617 327,624 328,625 328,630 329,631 329,636 330,637 330,641 329,642 328,641 327,642 308,642 307,643 302,643 301,644 297,644 296,645 294,645 293,646 291,646 290,647 288,647 287,648 286,648 285,649 283,649 282,650 281,650 279,652 278,652 277,653 276,653 274,655 273,655 270,658 269,658 260,667 260,668 256,672 256,673 254,675 254,676 253,677 253,678 251,680 251,681 250,682 250,683 249,684 249,685 248,686 248,687 247,688 247,689 246,690 246,692 245,693 245,694 244,695 244,697 243,698 243,700 242,701 242,702 241,703 241,706 240,707 240,709 239,710 239,712 238,713 238,716 237,717 237,719 236,720 236,722 235,723 235,726 234,727 234,729 233,730 233,732 232,733 232,735 231,736 231,739 230,740 230,742 229,743 229,745 228,746 228,749 227,750 227,752 226,753 226,755 225,756 225,760 224,761 225,762 225,766 226,767 226,768 228,770 228,771 229,771 231,773 232,773 233,774 234,774 235,775 242,775 243,774 245,774 246,773 247,773 250,770 250,769 252,767 252,765 253,764 253,761 254,760 254,758 255,757 255,755 256,754 256,751 257,750 257,748 258,747 258,745 259,744 259,742 260,741 260,738 261,737 261,735 262,734 262,732 263,731 263,729 264,728 264,725 265,724 265,722 266,721 266,719 267,718 267,716 268,715 268,712 269,711 269,709 270,708 270,707 271,706 271,704 272,703 272,702 273,701 273,699 274,698 274,697 276,695 276,694 278,692 278,691 280,689 280,688 289,679 290,679 292,677 293,677 294,676 295,676 296,675 297,675 298,674 299,674 300,673 302,673 303,672 306,672 307,671 311,671 312,670 337,670 339,672 339,674 340,675 340,677 341,678 341,679 342,680 342,682 343,683 343,685 344,686 344,687 345,688 345,689 346,690 346,692 347,693 347,694 348,695 348,696 349,697 349,698 350,699 350,700 351,701 351,702 352,703 352,705 353,706 353,707 354,708 354,709 356,711 356,712 357,713 357,714 358,715 358,716 359,717 359,718 361,720 361,721 362,722 362,723 364,725 364,726 366,728 366,729 368,731 368,732 370,734 370,735 373,738 373,739 376,742 376,743 379,746 379,747 384,752 384,753 404,773 405,773 410,778 411,778 414,781 415,781 418,784 419,784 421,786 422,786 424,788 425,788 427,790 428,790 430,792 431,792 432,793 433,793 435,795 436,795 437,796 438,796 439,797 440,797 441,798 442,798 443,799 444,799 445,800 446,800 447,801 448,801 449,802 450,802 451,803 452,803 453,804 455,804 456,805 457,805 458,806 460,806 461,807 463,807 464,808 466,808 467,809 469,809 470,810 472,810 473,811 476,811 477,812 480,812 481,813 484,813 485,814 490,814 491,815 496,815 497,816 498,816 498,429 500,427 524,427 525,428 525,816 527,816 528,815 533,815 534,814 539,814 540,813 543,813 544,812 547,812 548,811 551,811 552,810 554,810 555,809 557,809 558,808 560,808 561,807 563,807 564,806 565,806 566,805 568,805 569,804 570,804 571,803 573,803 574,802 575,802 576,801 577,801 578,800 579,800 580,799 581,799 582,798 583,798 584,797 585,797 586,796 587,796 589,794 590,794 591,793 592,793 594,791 595,791 597,789 598,789 599,788 600,788 603,785 604,785 606,783 607,783 610,780 611,780 615,776 616,776 625,767 626,767 634,759 634,758 641,751 641,750 646,745 646,744 649,741 649,740 652,737 652,736 654,734 654,733 656,731 656,730 658,728 658,727 660,725 660,724 662,722 662,721 663,720 663,719 665,717 665,716 666,715 666,714 667,713 667,712 668,711 668,710 669,709 669,708 670,707 670,706 671,705 671,704 672,703 672,702 673,701 673,700 674,699 674,698 675,697 675,696 676,695 676,694 677,693 677,691 678,690 678,689 679,688 679,686 680,685 680,684 681,683 681,681 682,680 682,679 683,678 683,676 684,675 684,673 685,672 685,671 686,670 712,670 713,671 717,671 718,672 721,672 722,673 724,673 725,674 726,674 727,675 728,675 729,676 730,676 732,678 733,678 736,681 737,681 741,685 741,686 745,690 745,691 747,693 747,694 748,695 748,696 749,697 749,698 750,699 750,700 751,701 751,702 752,703 752,705 753,706 753,708 754,709 754,711 755,712 755,714 756,715 756,718 757,719 757,721 758,722 758,724 759,725 759,727 760,728 760,730 761,731 761,734 762,735 762,737 763,738 763,740 764,741 764,744 765,745 765,747 766,748 766,750 767,751 767,753 768,754 768,757 769,758 769,760 770,761 770,763 771,764 771,766 772,767 772,768 773,769 773,770 775,772 776,772 778,774 780,774 781,775 788,775 789,774 790,774 791,773 792,773 797,768 797,767 798,766 798,756 797,755 797,753 796,752 796,750 795,749 795,746 794,745 794,743 793,742 793,740 792,739 792,737 791,736 791,733 790,732 790,730 789,729 789,727 788,726 788,724 787,723 787,720 786,719 786,717 785,716 785,714 784,713 784,710 783,709 783,707 782,706 782,704 781,703 781,701 780,700 780,698 779,697 779,695 778,694 778,693 777,692 777,690 776,689 776,688 775,687 775,686 774,685 774,684 773,683 773,682 772,681 772,680 770,678 770,677 768,675 768,674 766,672 766,671 763,668 763,667 753,657 752,657 750,655 749,655 747,653 746,653 744,651 743,651 742,650 741,650 740,649 738,649 737,648 736,648 735,647 733,647 732,646 730,646 729,645 727,645 726,644 723,644 722,643 717,643 716,642 701,642 700,641 695,641 694,642 693,641 693,635 694,634 694,629 695,628 695,623 696,622 696,615 697,614 697,604 698,603 698,590 699,589 699,551 700,550 740,550 741,551 745,551 746,552 748,552 749,553 750,553 751,554 752,554 753,555 754,555 755,556 756,556 759,559 760,559 767,566 767,567 771,571 771,572 773,574 773,575 775,577 775,578 777,580 777,581 780,584 780,585 782,587 782,588 784,590 784,591 786,593 786,594 788,596 788,597 790,599 790,600 794,604 795,604 796,605 798,605 799,606 804,606 805,605 807,605 808,604 809,604 813,600 813,599 814,598 814,597 815,596 815,588 814,587 814,586 813,585 813,584 812,583 812,582 810,580 810,579 808,577 808,576 806,574 806,573 804,571 804,570 802,568 802,567 800,565 800,564 798,562 798,561 796,559 796,558 794,556 794,555 790,551 790,550 774,534 773,534 771,532 770,532 768,530 767,530 766,529 765,529 764,528 763,528 762,527 760,527 759,526 757,526 756,525 754,525 753,524 750,524 749,523 742,523 741,522 697,522 696,521 696,516 695,515 695,511 694,510 694,507 693,506 693,503 692,502 692,499 691,498 691,497 690,496 690,494 689,493 689,491 688,490 688,489 687,488 687,486 686,485 686,484 685,483 685,482 686,481 688,481 689,480 691,480 692,479 694,479 695,478 697,478 698,477 700,477 701,476 702,476 703,475 705,475 706,474 707,474 708,473 709,473 710,472 711,472 712,471 713,471 714,470 715,470 716,469 717,469 718,468 719,468 721,466 722,466 723,465 724,465 726,463 727,463 730,460 731,460 736,455 737,455 742,450 742,449 747,444 747,443 750,440 750,439 751,438 751,437 753,435 753,434 754,433 754,432 755,431 755,430 756,429 756,428 757,427 757,426 758,425 758,424 759,423 759,421 760,420 760,419 761,418 761,416 762,415 762,413 763,412 763,410 764,409 764,406 765,405 765,401 766,400 766,397 767,396 767,391 768,390 768,385 769,384 769,376 770,375 770,357 769,356 769,355 768,354 768,353 764,349 763,349 762,348 760,348 759,347 754,347 753,348 751,348 750,349 749,349 748,350 747,350 746,351 746,352 744,354 744,355 743,356 743,359 742,360 742,379 741,380 741,384 740,385 740,389 739,390 739,393 738,394 738,398 737,399 737,402 736,403 736,406 735,407 735,409 734,410 734,412 733,413 733,414 732,415 732,416 731,417 731,418 730,419 730,420 728,422 728,423 726,425 726,426 722,430 722,431 717,436 716,436 713,439 712,439 709,442 708,442 707,443 706,443 704,445 703,445 702,446 701,446 700,447 698,447 697,448 696,448 695,449 693,449 692,450 691,450 690,451 688,451 687,452 684,452 683,453 680,453 679,454 676,454 675,455 672,455 671,456 670,456 655,441 654,441 650,437 649,437 645,433 644,433 642,431 641,431 639,429 638,429 636,427 635,427 633,425 632,425 631,424 630,424 629,423 628,423 627,422 626,422 625,421 623,421 622,420 621,420 620,419 618,419 617,418 615,418 614,417 612,417 611,416 609,416 608,415 605,415 604,414 602,414 601,413 598,413 597,412 594,412 593,411 589,411 588,410 585,410 584,409 581,409 580,408 576,408 575,407 571,407 570,406 565,406 564,405 559,405 558,404 552,404 551,403 543,403 542,402 531,402 530,401 495,401 494,402 482,402 481,403 473,403 472,404 466,404 465,405 460,405 459,406 454,406 453,407 448,407 447,408 443,408 442,409 438,409 437,410 434,410 433,411 429,411 428,412 425,412 424,413 422,413 421,414 418,414 417,415 415,415 414,416 412,416 411,417 409,417 408,418 406,418 405,419 404,419 403,420 401,420 400,421 399,421 398,422 397,422 396,423 395,423 394,424 393,424 392,425 391,425 389,427 388,427 387,428 386,428 384,430 383,430 380,433 379,433 376,436 375,436 371,440 370,440 356,454 356,455 355,456 353,456 352,455 348,455 347,454 344,454 343,453 340,453 339,452 336,452 335,451 333,451 332,450 330,450 329,449 328,449 327,448 326,448 325,447 323,447 321,445 320,445 319,444 318,444 317,443 316,443 314,441 313,441 310,438 309,438 300,429 300,428 297,425 297,424 295,422 295,421 294,420 294,419 293,418 293,417 292,416 292,415 291,414 291,413 290,412 290,411 289,410 289,408 288,407 288,405 287,404 287,402 286,401 286,398 285,397 285,394 284,393 284,389 283,388 283,385 282,384 282,379 281,378 281,359 280,358 280,356 279,355 279,354 277,352 277,351 276,350 275,350 274,349 273,349 272,348 270,348 269,347 264,347 263,348 261,348 260,349 259,349 255,353 "
       id="polygon1"
       style="stroke:none;stroke-width:14.19036322;stroke-dasharray:none;stroke-opacity:1" /><polygon
       fill="#000000"
       points="362,204 361,205 361,210 362,211 362,213 363,214 363,215 367,219 368,219 369,220 370,220 371,221 373,221 374,222 375,222 376,223 378,223 379,224 380,224 381,225 382,225 383,226 384,226 385,227 386,227 387,228 389,228 391,230 392,230 393,231 394,231 395,232 396,232 398,234 399,234 401,236 402,236 404,238 405,238 408,241 409,241 414,246 415,246 423,254 423,255 429,261 429,262 432,265 432,266 434,268 434,269 436,271 436,272 437,273 437,274 438,275 438,276 439,277 439,278 440,279 440,280 441,281 441,282 442,283 442,284 443,285 443,286 444,287 444,289 445,290 445,291 442,294 441,294 438,297 437,297 431,303 430,303 421,312 421,313 416,318 416,319 413,322 413,323 410,326 410,327 409,328 409,329 407,331 407,332 406,333 406,334 404,336 404,337 403,338 403,339 402,340 402,341 401,342 401,343 400,344 400,345 399,346 399,347 398,348 398,350 397,351 397,352 396,353 396,355 395,356 395,358 394,359 394,362 393,363 393,366 392,367 392,371 391,372 391,376 390,377 390,385 389,386 389,397 390,397 391,396 392,396 393,395 395,395 396,394 397,394 398,393 400,393 401,392 403,392 404,391 406,391 407,390 409,390 410,389 412,389 413,388 415,388 416,387 419,387 420,386 423,386 424,385 427,385 428,384 431,384 432,383 436,383 437,382 441,382 442,381 446,381 447,380 452,380 453,379 458,379 459,378 465,378 466,377 473,377 474,376 484,376 485,375 502,375 503,374 522,374 523,375 540,375 541,376 551,376 552,377 558,377 559,378 564,378 565,379 570,379 571,380 576,380 577,381 581,381 582,382 586,382 587,383 591,383 592,384 595,384 596,385 599,385 600,386 603,386 604,387 606,387 607,388 610,388 611,389 613,389 614,390 616,390 617,391 619,391 620,392 622,392 623,393 625,393 626,394 627,394 628,395 630,395 631,396 632,396 633,397 634,397 634,384 633,383 633,377 632,376 632,371 631,370 631,367 630,366 630,363 629,362 629,359 628,358 628,356 627,355 627,354 626,353 626,351 625,350 625,349 624,348 624,346 623,345 623,344 622,343 622,342 621,341 621,340 620,339 620,338 618,336 618,335 617,334 617,333 615,331 615,330 613,328 613,327 611,325 611,324 608,321 608,320 605,317 605,316 588,299 587,299 583,295 582,295 578,291 579,290 579,288 580,287 580,286 581,285 581,284 582,283 582,282 583,281 583,279 584,278 584,277 586,275 586,274 587,273 587,272 588,271 588,270 590,268 590,267 593,264 593,263 596,260 596,259 612,243 613,243 617,239 618,239 621,236 622,236 624,234 625,234 627,232 628,232 629,231 630,231 631,230 632,230 634,228 635,228 636,227 637,227 638,226 640,226 641,225 642,225 643,224 644,224 645,223 647,223 648,222 649,222 650,221 652,221 653,220 654,220 655,219 656,219 659,216 659,215 660,214 660,213 661,212 661,210 662,209 662,206 661,205 661,202 660,201 660,200 656,196 655,196 654,195 653,195 652,194 643,194 642,195 640,195 639,196 637,196 636,197 635,197 634,198 633,198 632,199 630,199 629,200 628,200 627,201 626,201 625,202 624,202 623,203 622,203 621,204 620,204 619,205 618,205 616,207 615,207 614,208 613,208 611,210 610,210 609,211 608,211 606,213 605,213 602,216 601,216 598,219 597,219 593,223 592,223 577,238 577,239 573,243 573,244 570,247 570,248 567,251 567,252 565,254 565,255 564,256 564,257 562,259 562,260 561,261 561,262 560,263 560,264 559,265 559,266 558,267 558,268 557,269 557,270 556,271 556,272 555,273 555,274 554,275 554,277 552,279 551,278 550,278 549,277 547,277 546,276 543,276 542,275 539,275 538,274 534,274 533,273 526,273 525,272 497,272 496,273 490,273 489,274 485,274 484,275 481,275 480,276 477,276 476,277 474,277 473,278 471,278 470,277 470,276 469,275 469,274 468,273 468,271 467,270 467,269 466,268 466,267 465,266 465,265 463,263 463,262 462,261 462,260 461,259 461,258 459,256 459,255 457,253 457,252 455,250 455,249 452,246 452,245 449,242 449,241 441,233 441,232 437,228 436,228 429,221 428,221 425,218 424,218 421,215 420,215 418,213 417,213 415,211 414,211 412,209 411,209 410,208 409,208 408,207 407,207 405,205 404,205 403,204 402,204 401,203 400,203 399,202 398,202 397,201 396,201 395,200 394,200 393,199 391,199 390,198 389,198 388,197 386,197 385,196 384,196 383,195 381,195 380,194 371,194 370,195 368,195 363,200 363,201 362,202 "
       id="polygon2"
       style="stroke:none;stroke-width:14.19036322;stroke-dasharray:none;stroke-opacity:1" /></g></svg>
