<?xml version="1.0" encoding="UTF-8"?>
<svg width="256" height="256" version="1.1"
     xmlns="http://www.w3.org/2000/svg"
     xmlns:xlink="http://www.w3.org/1999/xlink">
  <defs>
    <linearGradient id="Gradient" x1="0" x2="0" y1="0" y2="1">
      <stop offset="0%" style="stop-color:#1C71D8;stop-opacity:1" />
      <stop offset="100%" style="stop-color:#1C71D8;stop-opacity:1" />
    </linearGradient>
    <filter id="alpha-to-white">
      <feColorMatrix in="SourceGraphic" type="matrix"
                     values="0 0 0 0 1 0 0 0 0 1 0 0 0 0 1 0 0 0 1 0"/>
    </filter>
    <g id="child-svg"><svg xmlns="http://www.w3.org/2000/svg" xmlns:xlink="http://www.w3.org/1999/xlink" fill="#000000" height="800px" width="800px" version="1.1" id="Capa_1" viewBox="0 0 297 297" xml:space="preserve">
<path d="M251.01,277.015h-17.683l-0.002-31.559c0-31.639-17.358-60.726-48.876-81.901c-3.988-2.682-6.466-8.45-6.466-15.055&#xD;&#xA;	s2.478-12.373,6.464-15.053c31.52-21.178,48.878-50.264,48.88-81.904V19.985h17.683c5.518,0,9.992-4.475,9.992-9.993&#xD;&#xA;	c0-5.518-4.475-9.992-9.992-9.992H45.99c-5.518,0-9.992,4.475-9.992,9.992c0,5.519,4.475,9.993,9.992,9.993h17.683v31.558&#xD;&#xA;	c0,31.642,17.357,60.729,48.875,81.903c3.989,2.681,6.467,8.448,6.467,15.054c0,6.605-2.478,12.373-6.466,15.053&#xD;&#xA;	c-31.519,21.176-48.876,50.263-48.876,81.903v31.559H45.99c-5.518,0-9.992,4.475-9.992,9.993c0,5.519,4.475,9.992,9.992,9.992&#xD;&#xA;	h205.02c5.518,0,9.992-4.474,9.992-9.992C261.002,281.489,256.527,277.015,251.01,277.015z M138.508,110.362&#xD;&#xA;	c0-5.518,4.474-9.993,9.992-9.993s9.992,4.475,9.992,9.993v17.664c0,5.519-4.474,9.992-9.992,9.992s-9.992-4.474-9.992-9.992&#xD;&#xA;	V110.362z M141.433,173.956c1.858-1.857,4.436-2.927,7.064-2.927c2.628,0,5.206,1.069,7.064,2.927&#xD;&#xA;	c1.868,1.859,2.928,4.438,2.928,7.065s-1.06,5.206-2.928,7.064c-1.858,1.858-4.436,2.928-7.064,2.928&#xD;&#xA;	c-2.628,0-5.206-1.069-7.064-2.928c-1.859-1.858-2.928-4.437-2.928-7.064S139.573,175.816,141.433,173.956z M86.94,277.112&#xD;&#xA;	c8.152-30.906,50.161-64.536,55.405-68.635c3.614-2.826,8.692-2.828,12.309,0c5.244,4.1,47.252,37.729,55.404,68.635H86.94z" />
</svg></g>
  </defs>
  <rect
      width="256"
      height="256"
      fill="url(#Gradient)"
      ry="128"
      x="0"
      y="0" />
  <use xlink:href="#child-svg" filter="url(#alpha-to-white)"
       transform="matrix(0.16,0,0,0.16,64,64)" />
</svg>
