<?xml version="1.0" encoding="UTF-8" standalone="no"?>
<svg xmlns="http://www.w3.org/2000/svg" width="320" height="246.85753">
  <path fill="#fdfdfd" d="M0 123.42877V0h320v246.85753H0V123.42877z"/>
  <path d="M931.67424 188.75208c1.44699-.0251 3.81478-.0251 5.26177 0 1.44698.0251.26309.0456-2.63089.0456-2.89397 0-4.07787-.0205-2.63088-.0456z"/>
  <path d="M936.09718 188.76522c.10485-.0423.27643-.0423.38128 0 .10486.0423.0191.0769-.19064.0769-.20971 0-.2955-.0346-.19064-.0769zM190.358551 31.31778069c10.71676 3.799253 18.20529 10.489973 24.16789 15.883883-5.04357 3.06662-10.71592 6.08416-15.85355 8.125-4.5042-8.09501-9.08421-17.4641-12.5-24.28033zm-24.83211-3.991117 4.375.125c9.63373 9.93774 14.30401 19.0168 20 31.5-10.86908 3.37098-17.64457 4.85977-24.25 5.375zm-.125 46.375c10.63261-.84841 19.24789-3.27919 27.25-5.875 4.71274 11.30162 6.86729 22.40646 7.25 33.374998-10.81441-.1452-21.7246-.25847-34.5.25zm36.57515-9.42845c5.31925-2.49083 11.08354-5.42669 18.73832-10.25305 11.26154 13.11794 19.61209 29.39334 18.56155 47.729698l-28.8146-.53032c-1.15525-13.152028-4.52403-25.197298-8.48527-36.946328zm-11.11804 117.985528c10.71676-3.79925 18.20529-10.48997 24.16789-15.88388-5.04357-3.06662-10.71592-6.08416-15.85355-8.125-4.5042 8.09501-9.08421 17.4641-12.5 24.28033zm-24.83211 3.99112 4.375-.125c9.63373-9.93774 14.30401-19.0168 20-31.5-10.86908-3.37098-17.64457-4.85977-24.25-5.375zm-.125-46.375c10.63261.84841 19.24789 3.27919 27.25 5.875 4.71274-11.30162 6.86729-22.40646 7.25-33.375-10.81441.1452-21.7246.25847-34.5-.25zm36.57515 9.42845c5.31925 2.49083 11.08354 5.42669 18.73832 10.25305 11.26154-13.11794 19.61209-29.39334 18.56155-47.7297l-28.8146.53032c-1.15525 13.15203-4.52403 25.1973-8.48527 36.94633zm-71.56803-117.485528c-10.71676 3.79925-18.20529 10.48997-24.16789 15.88388 5.04357 3.06662 10.71592 6.08416 15.85355 8.125 4.5042-8.09501 9.08421-17.4641 12.5-24.28033zm24.83211-3.99112-4.375.125c-9.63373 9.93774-14.30401 19.0168-20 31.5 10.86908 3.37098 17.64457 4.85977 24.25 5.375zm.125 46.375c-10.63261-.84841-19.24789-3.27919-27.25-5.875-4.71274 11.30162-6.86729 22.40646-7.25 33.374998 10.81441-.1452 21.7246-.25847 34.5.25zm-36.57515-9.42845c-5.31925-2.49083-11.08354-5.42669-18.738324-10.25305-11.26154 13.11794-19.61209 29.39334-18.56155 47.729698l28.814604-.53032c1.15525-13.152028 4.52403-25.197298 8.48527-36.946328zm11.11804 117.985528c-10.71676-3.79925-18.20529-10.48997-24.16789-15.88388 5.04357-3.06662 10.71592-6.08416 15.85355-8.125 4.5042 8.09501 9.08421 17.4641 12.5 24.28033zm24.83211 3.99112-4.375-.125c-9.63373-9.93774-14.30401-19.0168-20-31.5 10.86908-3.37098 17.64457-4.85977 24.25-5.375zm.125-46.375c-10.63261.84841-19.24789 3.27919-27.25 5.875-4.71274-11.30162-6.86729-22.40646-7.25-33.375 10.81441.1452 21.7246.25847 34.5-.25zm-36.57515 9.42845c-5.31925 2.49083-11.08354 5.42669-18.738324 10.25305-11.26154-13.11794-19.61209-29.39334-18.56155-47.7297l28.814604.53032c1.15525 13.15203 4.52403 25.1973 8.48527 36.94633z"/>
  <path fill="none" stroke="#000" stroke-width="8.08763123" d="M613.5 178a99.5 101 0 1 1-199 0 99.5 101 0 1 1 199 0z" transform="matrix(.9357 0 .01206 .91905 -323.101609 -56.26823731)"/>
  <g style="line-height:125%" word-spacing="0">
    <path fill="#4d4d4d" d="M14.699728 214.27022h19.834259v4.1946h-7.135144v17.32615h-5.549556v-17.32615h-7.149559v-4.1946m22.688316 0h5.549557v8.20181h8.187398v-8.20181h5.549556v21.52075h-5.549556v-9.12434h-8.187398v9.12434h-5.549557v-21.52075m24.735165 0h14.976595v4.1946h-9.427038v4.00721h8.864876v4.1946h-8.864876v4.92974h9.744156v4.1946H62.123209v-21.52075m28.61265 0h5.318926l3.718923 15.63966 3.690092-15.63966h5.34776l3.69009 15.63966 3.71893-15.63966h5.27568l-5.07388 21.52075h-6.40001l-3.90631-16.36038-3.86307 16.36038h-6.400007l-5.117124-21.52075m44.237901 3.63244c-1.69131.00002-3.00302.62464-3.93514 1.87388-.93214 1.24926-1.39821 3.00782-1.3982 5.27568-.00001 2.25827.46606 4.01202 1.3982 5.26127.93212 1.24925 2.24383 1.87388 3.93514 1.87387 1.70089.00001 3.0174-.62462 3.94955-1.87387.93212-1.24925 1.39818-3.003 1.3982-5.26127-.00002-2.26786-.46608-4.02642-1.3982-5.27568-.93215-1.24924-2.24866-1.87386-3.94955-1.87388m0-4.02163c3.45944.00002 6.16936.98981 8.12974 2.96938 1.96034 1.97959 2.94052 4.71353 2.94054 8.20181-.00002 3.47869-.9802 6.20782-2.94054 8.1874-1.96038 1.97958-4.6703 2.96937-8.12974 2.96937-3.44987 0-6.15978-.98979-8.12974-2.96937-1.96037-1.97958-2.94055-4.70871-2.94055-8.1874 0-3.48828.98018-6.22222 2.94055-8.20181 1.96996-1.97957 4.67987-2.96936 8.12974-2.96938m23.13516 9.93155c1.16275.00001 1.99398-.21621 2.49369-.64865.5093-.43242.76395-1.14353.76397-2.13334-.00002-.98016-.25467-1.68167-.76397-2.10451-.49971-.4228-1.33094-.63421-2.49369-.63423h-2.33514v5.52073h2.33514m-2.33514 3.83424v8.14415h-5.54956v-21.52075h8.47569c2.83482.00002 4.9105.4757 6.22703 1.42703 1.32611.95137 1.98918 2.45528 1.9892 4.51172-.00002 1.42224-.34597 2.5898-1.03784 3.50271-.6823.91292-1.71534 1.58559-3.09911 2.01802.75915.17298 1.43662.56697 2.03244 1.18198.60539.60541 1.2156 1.52794 1.83063 2.76757l3.01262 6.11172h-5.90992l-2.62343-5.34775c-.52854-1.07628-1.06668-1.81141-1.61441-2.20541-.53815-.39399-1.25887-.59099-2.16217-.59099h-1.57117m17.16759-13.3766h5.54956v17.32615h9.74415v4.1946h-15.29371v-21.52075m24.34597 4.1946v13.13155h1.9892c2.26785 0 3.99758-.56216 5.18919-1.68649 1.20119-1.12432 1.80179-2.75795 1.80181-4.90091-.00002-2.13332-.59582-3.75734-1.78739-4.87207-1.19161-1.1147-2.92615-1.67206-5.20361-1.67208h-1.9892m-5.54955-4.1946h5.85226c3.26726.00002 5.69849.23546 7.2937.70631 1.60479.46128 2.97896 1.24927 4.12253 2.36397 1.00899.97059 1.75854 2.09011 2.24865 3.35856.49007 1.26848.73511 2.70512.73513 4.30991-.00002 1.62404-.24506 3.07509-.73513 4.35316-.49011 1.26848-1.23966 2.388-2.24865 3.35857-1.15318 1.11471-2.53696 1.90751-4.15136 2.37838-1.61443.46126-4.03605.69189-7.26487.69189h-5.85226v-21.52075m43.38744 8.33154c.87446.00002 1.53752-.19217 1.98919-.57657.45164-.38437.67746-.95134.67748-1.70091-.00002-.73992-.22584-1.30208-.67748-1.68648-.45167-.39398-1.11473-.59098-1.98919-.591h-3.07028v4.55496h3.07028m.18738 9.41263c1.11471 0 1.95074-.23543 2.50812-.70631.56695-.47087.85043-1.18198.85045-2.13333-.00002-.93213-.2787-1.62883-.83604-2.0901-.55737-.47086-1.39821-.7063-2.52253-.7063h-3.25766v5.63604h3.25766m5.16037-7.74055c1.19158.34596 2.1141.985 2.76757 1.91712.65344.93214.98016 2.07568.98018 3.43063-.00002 2.07569-.70152 3.62283-2.1045 4.64145-1.40303 1.01862-3.53636 1.52793-6.40001 1.52793h-9.21082v-21.52075h8.33154c2.98858.00002 5.15074.45168 6.48649 1.35496 1.34533.90332 2.018 2.34957 2.01802 4.33874-.00002 1.04747-.24506 1.94116-.73513 2.68109-.49011.73034-1.20122 1.27328-2.13334 1.62883m21.5784 7.5964h-8.67749l-1.36937 3.92073h-5.57838l7.97118-21.52075h6.61622l7.97118 21.52075h-5.57838l-1.35496-3.92073m-7.2937-3.99279h5.8955l-2.94054-8.56218-2.95496 8.56218m17.0667-13.60723h6.19821l7.82703 14.76038v-14.76038h5.26127v21.52075h-6.1982l-7.82704-14.76038v14.76038h-5.26127v-21.52075m24.73515 0h5.54956v7.85587l8.00001-7.85587h6.44325l-10.36397 10.19101 11.43064 11.32974h-6.94776l-8.56217-8.47569v8.47569h-5.54956v-21.52075" font-family="Myriad Pro" font-size="29.52075768" font-weight="700" letter-spacing="0" style="-inkscape-font-specification:Myriad Pro Bold" transform="translate(-6.1593743 .15197169)"/>
  </g>
</svg>